<svg width="275" height="49" viewBox="0 0 275 49" fill="none" xmlns="http://www.w3.org/2000/svg">
<g clip-path="url(#clip0_1404_7981)">
<path d="M6.93024 15.7393C6.80741 16.1424 6.63689 16.7797 6.63689 16.7797C6.634 16.7869 6.63256 16.7927 6.63111 16.7999C6.16724 18.5109 5.92013 20.258 5.92013 21.995C5.92013 22.1193 5.92013 22.2393 5.92302 22.3606C5.94903 24.4835 5.68603 26.5933 5.21348 28.6612L5.0025 29.508C3.91435 29.0832 2.80019 28.2754 1.73516 26.9271C-1.21715 23.1872 -0.23305 17.1858 3.40857 15.7725C4.83487 15.2205 6.01695 15.3621 6.93169 15.7393H6.93024Z" fill="#6560C5"/>
<path d="M53.7386 26.9255C52.6822 28.2623 51.5767 29.0701 50.4958 29.4949L50.2891 28.6568C49.8166 26.5888 49.5536 24.4805 49.5782 22.3576C49.5782 22.2362 49.5782 22.1163 49.5782 21.992C49.5782 20.2478 49.3311 18.4949 48.8628 16.7781L48.5449 15.7362C49.4582 15.3591 50.6403 15.2189 52.0637 15.7695C55.7053 17.1828 56.6894 23.1828 53.7371 26.9241L53.7386 26.9255Z" fill="#6560C5"/>
<path d="M47.2274 28.037C46.8184 26.2494 46.5916 24.4271 46.6132 22.5919C46.6132 22.4878 46.6132 22.3838 46.6132 22.2768C46.6132 20.7696 46.3994 19.2552 45.9947 17.7696L45.6349 16.5904C45.4138 15.9416 45.158 15.2985 44.869 14.6685C44.658 14.2089 44.4312 13.7552 44.1869 13.3101C42.0135 9.33465 38.5497 5.94737 34.5106 4.08321C33.9153 3.80864 32.593 0.771068 32.593 0.771068L29.4788 2.64101C29.3546 2.62656 29.2303 2.61355 29.1046 2.60199C28.8748 2.58176 28.6465 2.56587 28.4138 2.55575L27.3705 0.0441895C23.5309 1.35344 21.2664 3.93725 20.5265 4.3043C16.6855 6.20748 13.4023 9.48783 11.3112 13.3101C11.0655 13.7566 10.8401 14.2089 10.6291 14.6685C10.3401 15.2985 10.0843 15.9416 9.86179 16.5904C9.82422 16.5688 9.50341 17.7682 9.50341 17.7682C9.50052 17.774 9.49907 17.7797 9.49907 17.7855C9.09879 19.2638 8.88491 20.774 8.88491 22.2754C8.88491 22.3823 8.88491 22.4864 8.88491 22.5904C8.90803 24.4257 8.67971 26.2494 8.27075 28.037L7.92827 29.4185C7.91381 29.4835 7.89936 29.5485 7.88491 29.6136C7.67971 30.55 7.57422 31.5109 7.57422 32.4936C7.57422 39.2118 12.5294 44.9893 19.6291 47.5312C21.2462 48.1121 22.976 48.524 24.7823 48.7407C25.6812 48.8491 26.5988 48.9069 27.5338 48.9156C27.606 48.9156 27.6797 48.9156 27.752 48.9156C38.8936 48.9156 47.9254 41.5615 47.9254 32.4922C47.9254 31.5095 47.8199 30.5471 47.6147 29.6121C47.6002 29.5471 47.5858 29.482 47.5699 29.4185L47.2274 28.0341V28.037Z" fill="#6560C5"/>
<path d="M119.939 17.5861C121.662 18.3664 122.988 19.4719 123.919 20.9054C124.85 22.339 125.315 24.0369 125.315 25.9979C125.315 27.9589 124.85 29.6265 123.919 31.0716C122.988 32.5181 121.662 33.6251 119.939 34.391C118.217 35.1583 116.186 35.5413 113.847 35.5413H108.527V42.8216H102.416V16.417H113.847C116.186 16.417 118.217 16.8072 119.939 17.5861ZM117.695 29.3751C118.65 28.5832 119.128 27.4575 119.128 25.9979C119.128 24.5384 118.652 23.3765 117.695 22.5832C116.738 21.7913 115.342 21.3953 113.507 21.3953H108.527V30.5629H113.507C115.342 30.5629 116.738 30.167 117.695 29.3751Z" fill="#6560C5"/>
<path d="M150.345 37.9199V42.8245H129.898V16.417H149.855V21.3216H135.972V27.0557H148.232V31.8086H135.972V37.9199H150.345Z" fill="#6560C5"/>
<path d="M178.695 31.4878C179.55 32.6077 179.978 33.9849 179.978 35.6193C179.978 37.9329 179.079 39.7118 177.281 40.9575C175.484 42.2017 172.861 42.8245 169.416 42.8245H155.76V16.417H168.662C171.88 16.417 174.352 17.034 176.075 18.2653C177.797 19.4979 178.659 21.1699 178.659 23.2826C178.659 24.5658 178.351 25.7103 177.735 26.7161C177.118 27.7219 176.257 28.5138 175.151 29.0933C176.66 29.5716 177.842 30.3707 178.698 31.4892L178.695 31.4878ZM161.832 21.0196V27.2436H167.906C169.414 27.2436 170.559 26.9791 171.339 26.4517C172.118 25.9242 172.508 25.1439 172.508 24.1135C172.508 23.0832 172.118 22.3086 171.339 21.7927C170.559 21.2768 169.416 21.0196 167.906 21.0196H161.832ZM172.602 37.43C173.419 36.9025 173.829 36.0846 173.829 34.9777C173.829 32.7898 172.206 31.6959 168.962 31.6959H161.832V38.2219H168.962C170.572 38.2219 171.786 37.9575 172.602 37.43Z" fill="#6560C5"/>
<path d="M191.613 41.5036C189.412 40.3215 187.689 38.6929 186.445 36.6177C185.2 34.5426 184.578 32.2102 184.578 29.6192C184.578 27.0281 185.201 24.6958 186.445 22.6206C187.689 20.5455 189.412 18.9183 191.613 17.7348C193.814 16.5527 196.285 15.9617 199.026 15.9617C201.767 15.9617 204.231 16.5527 206.421 17.7348C208.608 18.9169 210.331 20.5455 211.588 22.6206C212.845 24.6958 213.474 27.0281 213.474 29.6192C213.474 32.2102 212.845 34.5426 211.588 36.6177C210.33 38.6929 208.608 40.3215 206.421 41.5036C204.233 42.6857 201.767 43.2767 199.026 43.2767C196.285 43.2767 193.814 42.6857 191.613 41.5036ZM203.25 36.9949C204.507 36.2781 205.494 35.2781 206.211 33.9964C206.928 32.7131 207.286 31.255 207.286 29.6206C207.286 27.9862 206.928 26.5267 206.211 25.2449C205.494 23.9617 204.507 22.9631 203.25 22.2464C201.993 21.5296 200.584 21.1712 199.025 21.1712C197.465 21.1712 196.056 21.5296 194.799 22.2464C193.542 22.9631 192.555 23.9631 191.838 25.2449C191.121 26.5281 190.763 27.9862 190.763 29.6206C190.763 31.255 191.121 32.7146 191.838 33.9964C192.555 35.2796 193.542 36.2781 194.799 36.9949C196.056 37.7117 197.465 38.0701 199.025 38.0701C200.584 38.0701 201.993 37.7117 203.25 36.9949Z" fill="#6560C5"/>
<path d="M242.276 16.417V42.8245H237.259L224.093 26.7913V42.8245H218.057V16.417H223.112L236.24 32.4502V16.417H242.276Z" fill="#6560C5"/>
<path d="M248.387 16.417H260.382C263.249 16.417 265.783 16.9647 267.984 18.0586C270.184 19.1525 271.894 20.693 273.114 22.68C274.333 24.667 274.943 26.9806 274.943 29.6208C274.943 32.2609 274.333 34.576 273.114 36.5615C271.894 38.5485 270.183 40.089 267.984 41.1829C265.783 42.2768 263.249 42.8245 260.382 42.8245H248.387V16.417ZM260.082 37.8072C262.722 37.8072 264.829 37.0716 266.401 35.6005C267.972 34.1294 268.76 32.1366 268.76 29.6208C268.76 27.1049 267.973 25.1121 266.401 23.641C264.829 22.1699 262.722 21.4343 260.082 21.4343H254.498V37.8072H260.082Z" fill="#6560C5"/>
<path d="M73.9583 42.8245H67.6953L79.4655 16.417H85.5017L97.3095 42.8245H90.8962L82.4453 22.4155L73.9569 42.8245H73.9583Z" fill="#6560C5"/>
</g>
<defs>
<clipPath id="clip0_1404_7981">
<rect width="275" height="48.9884" fill="white"/>
</clipPath>
</defs>
</svg>
