<?xml version="1.0" encoding="UTF-8" standalone="no"?>
<svg
   id="Layer_1"
   data-name="Layer 1"
   viewBox="0 0 300 41.000001"
   version="1.1"
   sodipodi:docname="benzinga.svg"
   width="300"
   height="41"
   inkscape:version="1.2.2 (b0a8486, 2022-12-01)"
   xmlns:inkscape="http://www.inkscape.org/namespaces/inkscape"
   xmlns:sodipodi="http://sodipodi.sourceforge.net/DTD/sodipodi-0.dtd"
   xmlns="http://www.w3.org/2000/svg"
   xmlns:svg="http://www.w3.org/2000/svg"
   xmlns:rdf="http://www.w3.org/1999/02/22-rdf-syntax-ns#"
   xmlns:cc="http://creativecommons.org/ns#"
   xmlns:dc="http://purl.org/dc/elements/1.1/">
  <sodipodi:namedview
     id="namedview598"
     pagecolor="#ffffff"
     bordercolor="#000000"
     borderopacity="0.25"
     inkscape:showpageshadow="2"
     inkscape:pageopacity="0.0"
     inkscape:pagecheckerboard="0"
     inkscape:deskcolor="#d1d1d1"
     showgrid="false"
     inkscape:zoom="1.9144646"
     inkscape:cx="235.575"
     inkscape:cy="31.862694"
     inkscape:window-width="1309"
     inkscape:window-height="456"
     inkscape:window-x="326"
     inkscape:window-y="567"
     inkscape:window-maximized="0"
     inkscape:current-layer="Layer_1" />
  <defs
     id="defs577">
    <style
       id="style575">.cls-1{fill:#ffffff;}</style>
  </defs>
  <title
     id="title579">Benzinga Logo_pitchdeck</title>
  <polygon
     class="cls-1"
     points="67.7,0 67.7,63.85 112.9,63.85 112.9,51.93 81.36,51.93 81.36,37.31 107.51,37.31 107.51,25.38 81.36,25.38 81.36,11.92 113.09,11.92 113.09,0 "
     id="polygon581"
     transform="matrix(0.62449588,0,0,0.62449588,3.7748471,1.0560758)" />
  <polygon
     class="cls-1"
     points="167.32,40.19 137.71,0 117.32,0 123.67,8.08 123.67,64.05 137.32,64.05 137.32,22.12 167.9,63.85 180.98,63.85 180.98,0 167.32,0 "
     id="polygon583"
     transform="matrix(0.62449588,0,0,0.62449588,3.7748471,1.0560758)" />
  <path
     class="cls-1"
     d="m 33.200702,20.415579 c 3.74998,-0.719996 6.86996,-4.202979 6.86996,-9.123954 -0.026,-5.3149742 -3.86998,-10.2357492 -11.55994,-10.2357492 H 3.7688571 l 3.83998,4.920975 V 40.948577 H 29.371732 c 7.68996,0 11.65294,-4.802976 11.65294,-10.810346 -0.1,-4.939976 -3.52998,-9.142955 -7.82996,-9.723952 z M 16.146782,8.5506388 h 10.69295 c 2.87999,0 4.67998,1.6869912 4.67998,4.2029792 0,2.516987 -1.79999,4.202978 -4.67998,4.202978 h -10.69295 z m 11.05295,24.9796752 h -11.05295 v -9.173955 h 11.05295 c 3.24998,0 5.03997,2.04299 5.03997,4.564978 0,2.878985 -1.91999,4.564977 -5.03997,4.564977 z"
     id="path585"
     style="stroke-width:0.624496" />
  <path
     class="cls-1"
     d="m 241.58866,26.154651 h 4.43997 v 4.690976 a 13.051974,13.051974 0 0 1 -8.16996,2.996985 c -7.08996,0 -12.13293,-5.402973 -12.13293,-12.727736 0,-7.324964 5.03998,-12.7329372 12.13293,-12.7329372 a 10.94742,10.94742 0 0 1 9.12996,5.0469752 l 6.71997,-3.7469812 c -2.87999,-4.539977 -7.92997,-8.623957 -15.97392,-8.623957 -11.29295,0 -20.6589,7.806961 -20.6589,19.9403002 0,12.13434 9.24996,19.933901 20.6589,19.933901 a 21.307815,21.307815 0 0 0 16.32991,-7.205964 V 18.956786 h -18.25391 z"
     id="path587"
     style="stroke-width:0.624496" />
  <polygon
     class="cls-1"
     points="319.27,40.19 289.65,0 269.26,0 275.61,8.08 275.61,64.05 289.27,64.05 289.27,22.12 319.85,63.85 332.92,63.85 332.92,0 319.27,0 "
     id="polygon589"
     transform="matrix(0.62449588,0,0,0.62449588,3.7748471,1.0560758)" />
  <path
     class="cls-1"
     d="m 282.30045,1.0560758 h -16.44892 l 3.95998,5.046975 -0.69999,1.91699 -12.73294,33.0358352 h 9.60995 l 2.48999,-6.731966 h 17.20492 l 2.48999,6.731966 h 9.59995 z m -11.63994,25.7043712 6.23997,-17.1799142 6.23997,17.1799142 z"
     id="path591"
     style="stroke-width:0.624496" />
  <rect
     class="cls-1"
     x="158.47566"
     width="8.5306196"
     height="39.998997"
     id="rect593"
     y="1.0561301"
     style="stroke-width:0.624496" />
  <polygon
     class="cls-1"
     points="236.76,0 188.67,0 188.67,11.92 218.87,11.92 188.67,52.89 188.67,63.85 237.34,63.85 237.34,51.93 206.37,51.93 236.76,10.96 "
     id="polygon595"
     transform="matrix(0.62449588,0,0,0.62449588,3.7748471,1.0560758)" />
  <metadata
     id="metadata602">
    <rdf:RDF>
      <cc:Work
         rdf:about="">
        <dc:title>Benzinga Logo_pitchdeck</dc:title>
      </cc:Work>
    </rdf:RDF>
  </metadata>
</svg>
