<?xml version="1.0" encoding="UTF-8" standalone="no"?>
<svg
   width="191.5"
   height="64"
   viewBox="0 0 383 128"
   fill="none"
   version="1.1"
   id="svg4"
   sodipodi:docname="ledger.svg"
   inkscape:version="1.2.2 (b0a8486, 2022-12-01)"
   xmlns:inkscape="http://www.inkscape.org/namespaces/inkscape"
   xmlns:sodipodi="http://sodipodi.sourceforge.net/DTD/sodipodi-0.dtd"
   xmlns="http://www.w3.org/2000/svg"
   xmlns:svg="http://www.w3.org/2000/svg">
  <defs
     id="defs8" />
  <sodipodi:namedview
     id="namedview6"
     pagecolor="#ffffff"
     bordercolor="#000000"
     borderopacity="0.25"
     inkscape:showpageshadow="2"
     inkscape:pageopacity="0.0"
     inkscape:pagecheckerboard="0"
     inkscape:deskcolor="#d1d1d1"
     showgrid="false"
     inkscape:zoom="1.84375"
     inkscape:cx="193.08475"
     inkscape:cy="64.813559"
     inkscape:window-width="1425"
     inkscape:window-height="589"
     inkscape:window-x="22"
     inkscape:window-y="1210"
     inkscape:window-maximized="0"
     inkscape:current-layer="svg4" />
  <path
     d="m 327.629,119.94 v 8.058 h 55.369 V 91.6548 h -8.067 V 119.94 Z m 0,-119.94 v 8.05844 h 47.302 V 36.3452 h 8.067 V 0 Z M 299.075,62.3411 V 43.6158 h 12.656 c 6.17,0 8.385,2.0538 8.385,7.6645 v 3.3179 c 0,5.7675 -2.136,7.7429 -8.385,7.7429 z m 20.09,3.3178 c 5.774,-1.5011 9.807,-6.8747 9.807,-13.2733 0,-4.0292 -1.581,-7.6645 -4.587,-10.5884 -3.796,-3.6353 -8.86,-5.452 -15.424,-5.452 h -17.797 v 55.3077 h 7.911 V 69.6097 h 11.865 c 6.09,0 8.543,2.5281 8.543,8.8502 v 13.1949 h 8.067 V 79.7239 c 0,-8.6914 -2.056,-12.0092 -8.385,-12.9577 z m -66.6,1.8167 h 24.363 V 60.207 H 252.565 V 43.6139 H 279.3 v -7.2687 h -34.804 v 55.3077 h 35.991 v -7.2687 h -27.922 z m -26.5,2.9239 v 3.7921 c 0,7.9801 -2.927,10.5884 -10.282,10.5884 h -1.74 c -7.358,0 -10.917,-2.3712 -10.917,-13.3536 V 56.5717 c 0,-11.0608 3.718,-13.3536 11.074,-13.3536 h 1.581 c 7.198,0 9.492,2.6867 9.57,10.1141 h 8.701 c -0.79,-10.9039 -8.067,-17.7767 -18.983,-17.7767 -5.299,0 -9.729,1.6598 -13.051,4.819 -4.983,4.6622 -7.752,12.5638 -7.752,23.6246 0,10.6668 2.374,18.5684 7.277,23.4658 3.322,3.2395 7.911,4.9777 12.419,4.9777 4.746,0 9.098,-1.897 11.311,-6.0046 h 1.106 v 5.2149 h 7.277 V 63.1309 H 212.22 v 7.2686 z M 156.301,43.6139 h 8.623 c 8.148,0 12.578,2.0538 12.578,13.1165 v 14.5373 c 0,11.0608 -4.43,13.1165 -12.578,13.1165 h -8.623 z m 9.333,48.0409 c 15.109,0 20.724,-11.4566 20.724,-27.6538 0,-16.4344 -6.012,-27.6539 -20.883,-27.6539 H 148.389 V 91.6548 Z M 110.186,67.4756 h 24.363 V 60.207 H 110.186 V 43.6139 h 26.735 v -7.2687 h -34.805 v 55.3077 h 35.992 V 84.3842 H 110.186 Z M 63.5175,36.3452 H 55.45 V 91.6529 H 91.8359 V 84.3842 H 63.5175 Z M 0,91.6548 V 128 h 55.3696 v -8.06 H 8.06747 V 91.6548 Z M 0,0 V 36.3452 H 8.06747 V 8.05844 H 55.3696 V 0 Z"
     fill="black"
     id="path2"
     style="fill:#ffffff" />
</svg>
