<?xml version="1.0" encoding="UTF-8" standalone="no"?>
<svg
   viewBox="0 0 764.48952 225"
   version="1.1"
   id="svg24"
   sodipodi:docname="nabox-logo.svg"
   width="152.8979"
   height="45"
   inkscape:version="1.2.2 (b0a8486, 2022-12-01)"
   xmlns:inkscape="http://www.inkscape.org/namespaces/inkscape"
   xmlns:sodipodi="http://sodipodi.sourceforge.net/DTD/sodipodi-0.dtd"
   xmlns="http://www.w3.org/2000/svg"
   xmlns:svg="http://www.w3.org/2000/svg">
  <sodipodi:namedview
     id="namedview26"
     pagecolor="#ffffff"
     bordercolor="#000000"
     borderopacity="0.25"
     inkscape:showpageshadow="2"
     inkscape:pageopacity="0.0"
     inkscape:pagecheckerboard="0"
     inkscape:deskcolor="#d1d1d1"
     showgrid="false"
     inkscape:zoom="1.033637"
     inkscape:cx="387.95052"
     inkscape:cy="114.16"
     inkscape:window-width="1309"
     inkscape:window-height="456"
     inkscape:window-x="394"
     inkscape:window-y="274"
     inkscape:window-maximized="0"
     inkscape:current-layer="svg24" />
  <defs
     id="defs4">
    <style
       id="style2">.cls-1{fill:#2ac98b;}.cls-1,.cls-2{fill-rule:evenodd;}.cls-2{fill:#fff;}</style>
  </defs>
  <title
     id="title6">logo-白</title>
  <g
     id="图层_2"
     data-name="图层 2">
    <g
       id="图层_1-2"
       data-name="图层 1">
      <polygon
         class="cls-1"
         points="92.27,117.28 0,64.12 0,170.46 30.79,188.21 30.79,112.14 61.47,129.86 61.47,205.88 92.27,223.63 "
         id="polygon8" />
      <path
         class="cls-1"
         d="m 69.94,54.39 30.85,-18.08 38.33,22.43 -30.83,18 z M 100.83,0 l -93,54.41 100.29,58.8 V 228.32 L 138.54,210.6 V 94.15 l 30.74,-18 V 192.5 l 30.87,-18.17 V 58.11 Z"
         id="path10" />
      <polygon
         class="cls-2"
         points="278.37,91.07 335.64,180.35 362.84,180.35 362.84,47.97 335.64,47.97 335.64,137.07 335.06,137.16 277.78,47.97 250.61,47.97 250.61,180.35 277.78,180.35 277.78,91.16 "
         id="polygon12" />
      <path
         class="cls-2"
         d="M 685.17,124.53 C 685.17,98.25 664.39,76.75 639,76.75 h -2.63 c -25.39,0 -46.17,21.5 -46.17,47.78 v 8 c 0,26.28 20.78,47.78 46.17,47.78 H 639 c 25.39,0 46.17,-21.5 46.17,-47.78 z m -46.61,27.08 c -10.61,0.43 -19.64,-8.21 -20.06,-19.19 l -0.23,-6.17 c -0.42,-11 7.93,-20.33 18.54,-20.76 10.61,-0.43 19.64,8.21 20.06,19.19 l 0.23,6.17 c 0.42,10.98 -7.92,20.32 -18.54,20.76 z"
         id="path14" />
      <path
         class="cls-2"
         d="M 440.42,80.3 A 44.46,44.46 0 0 0 423,76.75 h -2.6 c -25.39,0 -46.17,21.5 -46.17,47.78 v 8 c 0,26.28 20.78,47.78 46.17,47.78 h 2.6 a 44.46,44.46 0 0 0 17.4,-3.55 v 3.55 h 28.77 V 76.75 h -28.75 z m -17.83,71.27 c -10.61,0.44 -19.62,-8.19 -20,-19.16 l -0.23,-6.16 c -0.42,-11 7.92,-20.3 18.52,-20.73 9.44,-0.38 17.61,6.43 19.58,15.67 v 15.73 a 19.51,19.51 0 0 1 -17.87,14.65 z"
         id="path16" />
      <path
         class="cls-2"
         d="M 536.64,76.75 H 534 a 44.35,44.35 0 0 0 -18,3.82 V 48 H 487.22 V 180.35 H 516 v -3.82 a 44.35,44.35 0 0 0 18,3.82 h 2.62 c 25.4,0 46.18,-21.5 46.18,-47.78 v -8 C 582.82,98.25 562,76.75 536.64,76.75 Z m 17.85,55.66 c -0.42,11 -9.43,19.6 -20,19.16 -9.85,-0.4 -17.73,-8.48 -18.47,-18.42 v -3.68 l 0.19,-4.78 c 0.41,-11 9.42,-19.6 20,-19.17 10.58,0.43 18.93,9.76 18.51,20.73 z"
         id="path18" />
      <polygon
         class="cls-2"
         points="709.07,180.35 728.29,150.5 747.5,180.35 775.77,180.35 742.42,128.55 775.77,76.75 747.5,76.75 728.29,106.59 709.07,76.75 680.8,76.75 714.15,128.55 680.8,180.35 "
         id="polygon20" />
    </g>
  </g>
</svg>
