<svg width="179" height="48" viewBox="0 0 179 48" fill="none" xmlns="http://www.w3.org/2000/svg">
<g clip-path="url(#clip0_1197_8375)">
<path d="M54.4941 26.6891C54.4941 29.4326 56.7774 31.334 60.4085 31.334C63.9847 31.334 66.488 29.5684 66.488 26.662C66.488 24.4889 65.2501 23.4567 62.9943 22.9678L60.436 22.4245C59.4732 22.2072 58.9506 21.8541 58.9506 21.2294C58.9506 20.496 59.5558 20.007 60.5186 20.007C61.5364 20.007 62.1141 20.6318 62.1141 21.5553H66.1303C66.1303 18.8119 63.9021 16.9648 60.7111 16.9648C57.4101 16.9648 54.9618 18.5946 54.9618 21.4195C54.9618 23.8099 56.1997 24.8964 58.7305 25.4396L61.2613 25.9829C62.2791 26.2002 62.4992 26.6348 62.4992 27.0423C62.4992 27.7485 61.894 28.2103 60.5736 28.2103C59.2807 28.2103 58.5654 27.6398 58.5104 26.6891H54.4941Z" fill="#ffffff"/>
<path d="M71.4071 30.9809H75.5334L76.8538 26.7435C77.7341 23.8913 77.9817 22.832 78.0917 22.2616C78.1742 22.832 78.5319 24.4346 79.2196 26.662L80.54 30.9809H84.4737L89.2878 17.3994H84.8039L83.4834 21.827C83.3459 22.3159 82.6857 24.7062 82.5206 25.6841C82.3831 24.8149 81.7229 22.2887 81.5853 21.827L80.2924 17.3994H75.946L74.5431 21.827C73.9379 23.7284 73.8003 24.2445 73.5528 25.6841C73.3327 24.326 73.0301 22.995 72.7 21.827L71.4346 17.3994H66.9782L71.4071 30.9809Z" fill="#ffffff"/>
<path d="M93.2505 15.2807C94.571 15.2807 95.6438 14.2213 95.6438 12.8903C95.6438 11.5594 94.571 10.5272 93.2505 10.5272C91.9026 10.5272 90.8298 11.5594 90.8298 12.8903C90.8298 14.2213 91.9026 15.2807 93.2505 15.2807ZM91.1599 30.9809H95.3962V17.3994H91.1599V30.9809Z" fill="#ffffff"/>
<path d="M98.5743 37.5H102.811V29.6227C103.608 30.6549 105.369 31.3612 107.267 31.3612C111.366 31.3612 113.732 28.2646 113.732 23.9728C113.732 19.5996 111.063 16.9648 107.24 16.9648C105.286 16.9648 103.553 17.8068 102.783 19.0563L102.563 17.3994H98.5743V37.5ZM102.838 24.1901C102.838 22.1529 104.214 20.7948 106.194 20.7948C108.202 20.7948 109.468 22.1801 109.468 24.1901C109.468 26.2002 108.202 27.5855 106.194 27.5855C104.214 27.5855 102.838 26.2274 102.838 24.1901Z" fill="#ffffff"/>
<path d="M122.552 31.334C126.321 31.334 129.044 29.4054 129.54 26.3903H125.661C125.358 27.3682 124.23 27.9386 122.635 27.9386C120.764 27.9386 119.746 27.0966 119.499 25.3038L129.485 25.2495V24.1901C129.485 19.7626 126.789 16.9648 122.47 16.9648C118.316 16.9648 115.428 19.9256 115.428 24.163C115.428 28.3461 118.398 31.334 122.552 31.334ZM122.497 20.3602C124.203 20.3602 125.276 21.2837 125.276 22.7233H119.554C119.884 21.0936 120.819 20.3602 122.497 20.3602Z" fill="#ffffff"/>
<path d="M136.23 30.9809V10.5H131.993V30.9809H136.23Z" fill="#ffffff"/>
<path d="M148.541 17.3994V24.4618C148.541 26.6891 147.798 27.6127 145.982 27.6127C144.249 27.6127 143.479 26.6348 143.479 24.4074V17.3994H139.243V25.9286C139.243 29.2696 141.168 31.334 144.304 31.334C145.955 31.334 147.66 30.5734 148.513 29.4598L148.788 30.9809H152.777V17.3994H148.541Z" fill="#ffffff"/>
<path d="M159.45 30.9809L161.76 27.0694L164.126 30.9809H168.995L164.621 24.326L169.16 17.3994H164.429L162.063 21.5282L159.532 17.3994H154.635L159.257 24.4074L154.635 30.9809H159.45Z" fill="#ffffff"/>
<g clip-path="url(#clip1_1197_8375)">
<path d="M1.08075 25.8342C0.157978 24.9198 0.157978 23.4373 1.08075 22.5229L13.1943 10.5193C14.1171 9.6049 15.6132 9.6049 16.536 10.5193L28.6495 22.5229C29.5723 23.4373 29.5723 24.9198 28.6495 25.8342L16.536 37.8378C15.6132 38.7522 14.1171 38.7522 13.1943 37.8378L1.08075 25.8342Z" fill="#F4663E"/>
<path d="M20.8851 34.3549C20.4237 34.8121 20.4237 35.5534 20.8851 36.0106L22.729 37.8378C23.6518 38.7522 25.1479 38.7522 26.0707 37.8378L38.1842 25.8342C39.107 24.9198 39.107 23.4373 38.1842 22.5229L26.0707 10.5193C25.1479 9.6049 23.6518 9.6049 22.729 10.5193L20.8851 12.3465C20.4237 12.8037 20.4237 13.5449 20.8851 14.0021L29.4839 22.5229C30.4067 23.4373 30.4067 24.9198 29.4839 25.8342L20.8851 34.3549Z" fill="#FA9B51"/>
<path d="M30.4203 34.355C29.9589 34.8122 29.9589 35.5535 30.4203 36.0107L32.264 37.8378C33.1868 38.7522 34.6829 38.7522 35.6057 37.8378L47.7192 25.8342C48.642 24.9198 48.642 23.4373 47.7192 22.5229L35.6057 10.5193C34.6829 9.6049 33.1868 9.6049 32.264 10.5193L30.4203 12.3463C29.9589 12.8035 29.9589 13.5448 30.4203 14.002L39.0192 22.5229C39.942 23.4373 39.942 24.9198 39.0192 25.8342L30.4203 34.355Z" fill="#FFDA99"/>
</g>
</g>
<defs>
<clipPath id="clip0_1197_8375">
<rect width="179" height="48" fill="white"/>
</clipPath>
<clipPath id="clip1_1197_8375">
<rect width="48.4397" height="48" fill="white"/>
</clipPath>
</defs>
</svg>
